# xmcd
#
# Track frame offsets: 
#        150
#        20462
#        50236
#        73800
#        101076
#        122921
#        144851
#        160430
#        185387
#        204874
#        237207
#        254549
#        280907
#
# Disc length: 3990 seconds
#
# Revision: 0
# Processed by: cddbd v1.5.1PL2 Copyright (c) Steve Scherf et al.
# Submitted via: ExactAudioCopy v0.95b3
#
DISCID=c10f940d
DTITLE=Zora Young - Tore Up From The Floor Up
DYEAR=2005
DGENRE=Blues
TTITLE0=Love Of Mine
TTITLE1=Go Ahead And Take Him
TTITLE2=I'm Gonna Do The Same Thing They Did To Me
TTITLE3=Toxic
TTITLE4=Til The Fat Lady Sings
TTITLE5=Slowly
TTITLE6=Ace Of Spades
TTITLE7=Rainy Night In Georgia
TTITLE8=Tore Up From The Floor Up
TTITLE9=Since I Fell For You - Silhouettes
TTITLE10=Handy Man
TTITLE11=Two Trains Running
TTITLE12=Interview
EXTD=
EXTT0=
EXTT1=
EXTT2=
EXTT3=
EXTT4=
EXTT5=
EXTT6=
EXTT7=
EXTT8=
EXTT9=
EXTT10=
EXTT11=
EXTT12=
PLAYORDER=
